HIERARCHY
ROOT Hips
{
	OFFSET 0.000000 0.000000 0.000000 
	CHANNELS 6 Xposition Yposition Zposition Zrotation Yrotation Xrotation
	JOINT LeftUpLeg
	{
		OFFSET 1.363060 -1.794630 0.839290 
		CHANNELS 3 Zrotation Yrotation Xrotation
		JOINT LeftLeg
		{
			OFFSET 2.448110 -6.726130 0.000000 
			CHANNELS 3 Zrotation Yrotation Xrotation
			JOINT LeftFoot
			{
				OFFSET 2.562200 -7.039590 0.000000 
				CHANNELS 3 Zrotation Yrotation Xrotation
				JOINT LeftToeBase
				{
					OFFSET 0.157640 -0.433110 2.322550 
					CHANNELS 3 Zrotation Yrotation Xrotation
					End Site
					{
						OFFSET 0.000000 0.000000 0.000000 
					}
				}
			}
		}
	}
	JOINT RightUpLeg
	{
		OFFSET -1.305520 -1.794630 0.839290 
		CHANNELS 3 Zrotation Yrotation Xrotation
		JOINT RightLeg
		{
			OFFSET -2.542530 -6.985550 0.000000 
			CHANNELS 3 Zrotation Yrotation Xrotation
			JOINT RightFoot
			{
				OFFSET -2.568260 -7.056230 0.000000 
				CHANNELS 3 Zrotation Yrotation Xrotation
				JOINT RightToeBase
				{
					OFFSET -0.164730 -0.452590 2.363150 
					CHANNELS 3 Zrotation Yrotation Xrotation
					End Site
					{
						OFFSET 0.000000 0.000000 0.000000 
					}
				}
			}
		}
	}
	JOINT Spine
	{
		OFFSET 0.028270 2.035590 -0.193380 
		CHANNELS 3 Zrotation Yrotation Xrotation
		JOINT Spine1
		{
			OFFSET 0.056720 2.048850 -0.042750 
			CHANNELS 3 Zrotation Yrotation Xrotation
			JOINT Neck1
			{
				OFFSET -0.054170 1.746240 0.172020 
				CHANNELS 3 Zrotation Yrotation Xrotation
				JOINT Head
				{
					OFFSET 0.104070 1.761360 -0.123970 
					CHANNELS 3 Zrotation Yrotation Xrotation
					End Site
					{
						OFFSET 0.000000 0.000000 0.000000 
					}
				}
			}
			JOINT LeftArm
			{
				OFFSET 3.362410 1.200890 -0.311210 
				CHANNELS 3 Zrotation Yrotation Xrotation
				JOINT LeftForeArm
				{
					OFFSET 4.983000 -0.000000 -0.000000 
					CHANNELS 3 Zrotation Yrotation Xrotation
					JOINT LeftHand
					{
						OFFSET 3.483560 -0.000000 -0.000000 
						CHANNELS 3 Zrotation Yrotation Xrotation
						JOINT LeftHandIndex1
						{
							OFFSET 0.715260 -0.000000 -0.000000 
							CHANNELS 3 Zrotation Yrotation Xrotation
							End Site
							{
								OFFSET 0.000000 0.000000 0.000000 
							}
						}
					}
				}
			}
			JOINT RightArm
			{
				OFFSET -3.136600 1.374050 -0.404650 
				CHANNELS 3 Zrotation Yrotation Xrotation
				JOINT RightForeArm
				{
					OFFSET -5.241900 -0.000000 -0.000000 
					CHANNELS 3 Zrotation Yrotation Xrotation
					JOINT RightHand
					{
						OFFSET -3.444170 -0.000000 -0.000000 
						CHANNELS 3 Zrotation Yrotation Xrotation
						JOINT RightHandIndex1
						{
							OFFSET -0.622530 -0.000000 -0.000000 
							CHANNELS 3 Zrotation Yrotation Xrotation
							End Site
							{
								OFFSET 0.000000 0.000000 0.000000 
							}
						}
					}
				}
			}
		}
	}
}
MOTION
Frames: 6
Frame Time: 0.041667
0.463069 16.402543 -0.739063 4.096603 -2.989660 9.546236 -29.609099 -13.503492 -26.446556 6.414613 14.806689 48.008994 1.708424 0.875623 -23.597968 0.722000 -5.429700 -15.138400 17.729166 19.482764 -29.815232 -8.266862 -15.949933 53.037840 -1.268007 -6.085504 -26.988972 -0.763700 5.580800 -15.572900 -0.308039 4.930187 -3.061298 -4.670414 2.537397 -4.817319 4.785044 1.215210 8.947391 2.376200 0.580400 2.349700 -47.823659 9.116809 -26.534413 129.288365 -51.255286 -92.729165 2.671202 1.288188 16.540575 -7.125000 0.000000 0.000000 48.125743 -18.137782 90.896147 -87.563500 57.822163 -51.535161 -1.274996 -0.213810 -1.203506 7.125000 0.000000 0.000000 
0.463069 16.402835 -0.739938 4.091993 -2.978054 9.541156 -29.604183 -13.497100 -26.450623 6.416769 14.809015 48.017296 1.714215 0.881610 -23.645719 0.737100 -5.485000 -15.297100 17.735367 19.470177 -29.812165 -8.268814 -15.951170 53.044504 -1.272274 -6.068476 -27.002936 -0.765300 5.586500 -15.589300 -0.317738 4.926768 -3.061613 -4.694289 2.534634 -4.824918 4.801776 1.216389 8.926633 2.389800 0.580200 2.334200 -47.830567 9.064035 -26.597001 129.219930 -51.277971 -92.676341 2.660296 1.276171 16.555618 -7.125000 0.000000 0.000000 48.130809 -18.102803 90.924327 -87.497789 57.829629 -51.476370 -1.277165 -0.215982 -1.193669 7.125000 0.000000 0.000000 
0.462680 16.402057 -0.741493 4.093696 -2.955580 9.550529 -29.601857 -13.498984 -26.474888 6.418866 14.813812 48.030401 1.712578 0.952263 -23.713681 0.785700 -5.658600 -15.797100 17.732130 19.447517 -29.836770 -8.272995 -15.955581 53.059896 -1.281667 -6.024145 -27.027342 -0.745700 5.516000 -15.386300 -0.316637 4.910464 -3.062356 -4.678169 2.527276 -4.825180 4.796635 1.222998 8.914187 2.392800 0.582600 2.329600 -47.853139 9.061838 -26.621395 129.219064 -51.277067 -92.676924 2.663872 1.265788 16.576323 -7.125000 0.000000 0.000000 48.116464 -18.082516 90.956450 -87.499078 57.828930 -51.477722 -1.276366 -0.220204 -1.139498 7.125000 0.000000 0.000000 
0.461708 16.400600 -0.744408 4.099193 -2.922734 9.559082 -29.601314 -13.540115 -26.497736 6.421415 14.818831 48.044444 1.698122 1.017065 -23.684368 0.814400 -5.758900 -16.086300 17.726649 19.459110 -29.856646 -8.278015 -15.960789 53.079826 -1.284108 -6.023271 -27.044808 -0.728500 5.453400 -15.206300 -0.319412 4.900312 -3.064879 -4.677685 2.521889 -4.840972 4.747926 1.216894 8.870269 2.366200 0.579600 2.304900 -47.856664 9.056074 -26.605231 129.209941 -51.281865 -92.667079 2.672663 1.267313 16.610963 -7.125000 0.000000 0.000000 48.143554 -18.090259 90.937601 -87.490284 57.829781 -51.468818 -1.276482 -0.218969 -1.165202 7.125000 0.000000 0.000000 
0.461514 16.399919 -0.744894 4.118260 -2.901305 9.548938 -29.624283 -13.554907 -26.485976 6.423499 14.818666 48.049021 1.694959 0.962380 -23.600743 0.785300 -5.657200 -15.793000 17.701929 19.448824 -29.857244 -8.283868 -15.966104 53.102269 -1.277618 -6.079210 -27.055142 -0.742700 5.505100 -15.355000 -0.326788 4.877620 -3.055039 -4.682890 2.510982 -4.822640 4.710891 1.223591 8.831383 2.342500 0.583500 2.282400 -47.874589 9.046110 -26.623246 129.187750 -51.292248 -92.645761 2.683068 1.265116 16.699175 -7.125000 0.000000 0.000000 48.167920 -18.039320 90.939893 -87.465304 57.834525 -51.444860 -1.276878 -0.215013 -1.195362 7.125000 0.000000 0.000000 
0.461708 16.400016 -0.745477 4.169896 -2.889206 9.549330 -29.680334 -13.581724 -26.478651 6.423453 14.817317 48.046511 1.704226 0.892389 -23.587489 0.750000 -5.531600 -15.431100 17.631863 19.425641 -29.889465 -8.290165 -15.973471 53.126435 -1.277517 -6.071337 -27.048076 -0.738600 5.490100 -15.312000 -0.348869 4.862499 -3.050184 -4.699508 2.503738 -4.802251 4.698911 1.222272 8.872774 2.325800 0.585100 2.317200 -47.821702 9.016965 -26.637177 129.128409 -51.316227 -92.595512 2.694196 1.268253 16.703621 -7.125000 0.000000 0.000000 48.235183 -18.008461 90.909893 -87.446335 57.836075 -51.424866 -1.277198 -0.213656 -1.183366 7.125000 0.000000 0.000000 
